<?xml version="1.0" encoding="iso-8859-1"?>
<!-- Generator: Adobe Illustrator 19.0.0, SVG Export Plug-In . SVG Version: 6.00 Build 0)  -->
<svg version="1.1" id="Layer_1" xmlns="http://www.w3.org/2000/svg" xmlns:xlink="http://www.w3.org/1999/xlink" x="0px" y="0px"
	 viewBox="0 0 512 512" style="enable-background:new 0 0 512 512;" xml:space="preserve">
<g>
	<circle style="fill:#A0EBFF;" cx="256" cy="256" r="256"/>
	<polygon style="fill:#71C6DE;" points="122.199,399.068 94.044,396.626 175.524,315.146 190.822,330.445 	"/>
	<path style="fill:#FFFFFF;" d="M246.881,126.602l-11.602,11.602l25.349,25.349L144.292,279.885l0.133,0.133
		c-6.984,9.682,4.019,33.889,25.595,55.465c21.581,21.581,45.783,32.584,55.465,25.595l0.133,0.133l116.332-116.332l25.349,25.349
		l11.602-11.602L246.881,126.602z"/>
	<polygon style="fill:#FFFFFF;" points="318.904,88.013 306.524,100.393 327.747,121.62 284.826,164.541 341.422,221.143 
		384.348,178.222 405.571,199.444 417.956,187.064 	"/>
	<path style="fill:#B6F0FF;" d="M312.893,192.614L170.547,334.961c18.386,14.991,36.644,21.765,44.744,15.923l0.133,0.133
		l116.332-116.332l25.349,25.349l11.602-11.602L312.893,192.614z"/>
	<polygon style="fill:#B6F0FF;" points="368.2,137.308 312.893,192.614 331.223,210.944 374.149,168.023 395.377,189.245 
		407.757,176.865 	"/>
	
		<rect x="310.215" y="147.561" transform="matrix(-0.7071 -0.7071 0.7071 -0.7071 487.7696 513.5154)" style="fill:#B6F0FF;" width="80.045" height="16.353"/>
	<path style="fill:#FC611F;" d="M213.489,231.081l-56.765,56.765c-0.01,5.14,6.518,20.46,23.496,37.437
		c16.968,16.968,32.276,23.501,37.432,23.501l56.771-56.771L213.489,231.081z"/>
	<path style="fill:#E34E10;" d="M244.296,261.888l-63.724,63.729c16.824,16.701,31.959,23.173,37.079,23.168l56.771-56.771
		L244.296,261.888z"/>
	<path style="fill:#71C6DE;" d="M231.347,193.3l-9.155,9.155l24.724,24.724l9.155-9.155L231.347,193.3z M200.079,224.563
		l24.724,24.724l9.155-9.155l-24.724-24.724L200.079,224.563z M177.971,246.671l24.724,24.724l9.155-9.155l-24.724-24.724
		L177.971,246.671z M155.863,268.78l24.724,24.724l9.155-9.155l-24.724-24.724L155.863,268.78z"/>
</g>
<g>
</g>
<g>
</g>
<g>
</g>
<g>
</g>
<g>
</g>
<g>
</g>
<g>
</g>
<g>
</g>
<g>
</g>
<g>
</g>
<g>
</g>
<g>
</g>
<g>
</g>
<g>
</g>
<g>
</g>
</svg>
